<mxfile host="app.diagrams.net" agent="Mozilla/5.0 (Windows NT 10.0; Win64; x64) AppleWebKit/537.36 (KHTML, like Gecko) Chrome/139.0.0.0 Safari/537.36" version="28.0.7">
  <diagram name="Page-1" id="ZSEAcTfa0QU76BoF_Xv9">
    <mxGraphModel dx="1830" dy="803" grid="1" gridSize="10" guides="1" tooltips="1" connect="1" arrows="1" fold="1" page="1" pageScale="1" pageWidth="850" pageHeight="1100" math="0" shadow="0">
      <root>
        <mxCell id="0" />
        <mxCell id="1" parent="0" />
        <mxCell id="to_MpL1wSGInp0MJtWkT-1" value="&lt;b&gt;Student Infromation System&lt;/b&gt;" style="rounded=0;whiteSpace=wrap;html=1;fillColor=#CC6600;" parent="1" vertex="1">
          <mxGeometry x="30" y="20" width="370" height="20" as="geometry" />
        </mxCell>
        <mxCell id="to_MpL1wSGInp0MJtWkT-7" value="" style="endArrow=classic;html=1;rounded=0;fontSize=12;startSize=8;endSize=8;curved=1;fillColor=#CC6600;" parent="1" edge="1">
          <mxGeometry width="50" height="50" relative="1" as="geometry">
            <mxPoint x="110" y="89.72999999999999" as="sourcePoint" />
            <mxPoint x="180" y="90" as="targetPoint" />
          </mxGeometry>
        </mxCell>
        <mxCell id="to_MpL1wSGInp0MJtWkT-8" value="Login to system" style="ellipse;whiteSpace=wrap;html=1;aspect=fixed;fillColor=#CC6600;" parent="1" vertex="1">
          <mxGeometry x="180" y="50" width="80" height="80" as="geometry" />
        </mxCell>
        <mxCell id="to_MpL1wSGInp0MJtWkT-9" value="Checks Roles of Access" style="ellipse;whiteSpace=wrap;html=1;aspect=fixed;fillColor=#CC6600;" parent="1" vertex="1">
          <mxGeometry x="310" y="60" width="90" height="90" as="geometry" />
        </mxCell>
        <mxCell id="to_MpL1wSGInp0MJtWkT-25" value="" style="endArrow=classic;html=1;rounded=0;fontSize=12;startSize=8;endSize=8;curved=1;fillColor=#CC6600;" parent="1" edge="1">
          <mxGeometry width="50" height="50" relative="1" as="geometry">
            <mxPoint x="70.09" y="110" as="sourcePoint" />
            <mxPoint x="70" y="160" as="targetPoint" />
          </mxGeometry>
        </mxCell>
        <mxCell id="to_MpL1wSGInp0MJtWkT-26" value="Forgot Password" style="ellipse;whiteSpace=wrap;html=1;aspect=fixed;fillColor=#CC6600;" parent="1" vertex="1">
          <mxGeometry x="35" y="160" width="70" height="70" as="geometry" />
        </mxCell>
        <mxCell id="to_MpL1wSGInp0MJtWkT-29" value="" style="endArrow=classic;html=1;rounded=0;fontSize=12;startSize=8;endSize=8;curved=1;fillColor=#CC6600;" parent="1" edge="1">
          <mxGeometry width="50" height="50" relative="1" as="geometry">
            <mxPoint x="69.59" y="230" as="sourcePoint" />
            <mxPoint x="70" y="290" as="targetPoint" />
          </mxGeometry>
        </mxCell>
        <mxCell id="to_MpL1wSGInp0MJtWkT-31" value="" style="endArrow=classic;html=1;rounded=0;fontSize=12;startSize=8;endSize=8;curved=1;fillColor=#CC6600;" parent="1" edge="1">
          <mxGeometry width="50" height="50" relative="1" as="geometry">
            <mxPoint x="69.56" y="370" as="sourcePoint" />
            <mxPoint x="70" y="430" as="targetPoint" />
          </mxGeometry>
        </mxCell>
        <mxCell id="to_MpL1wSGInp0MJtWkT-32" value="Checks&amp;nbsp;&lt;div&gt;Credentials&lt;/div&gt;" style="ellipse;whiteSpace=wrap;html=1;aspect=fixed;fillColor=#CC6600;" parent="1" vertex="1">
          <mxGeometry x="172.5" y="190" width="100" height="100" as="geometry" />
        </mxCell>
        <mxCell id="to_MpL1wSGInp0MJtWkT-33" value="" style="endArrow=classic;html=1;rounded=0;fontSize=12;startSize=8;endSize=8;curved=1;fillColor=#CC6600;" parent="1" edge="1">
          <mxGeometry width="50" height="50" relative="1" as="geometry">
            <mxPoint x="220.03" y="130" as="sourcePoint" />
            <mxPoint x="220" y="190" as="targetPoint" />
            <Array as="points">
              <mxPoint x="219.47" y="175" />
              <mxPoint x="220" y="190" />
            </Array>
          </mxGeometry>
        </mxCell>
        <mxCell id="to_MpL1wSGInp0MJtWkT-34" value="MAnage modules" style="ellipse;whiteSpace=wrap;html=1;aspect=fixed;fillColor=#CC6600;" parent="1" vertex="1">
          <mxGeometry x="315" y="205" width="90" height="90" as="geometry" />
        </mxCell>
        <mxCell id="3oxbvbiiDGey4lFmMGMX-1" value="" style="endArrow=classic;html=1;rounded=0;entryX=0;entryY=0.5;entryDx=0;entryDy=0;exitX=0.946;exitY=0.288;exitDx=0;exitDy=0;exitPerimeter=0;fillColor=#CC6600;" parent="1" source="to_MpL1wSGInp0MJtWkT-32" target="to_MpL1wSGInp0MJtWkT-9" edge="1">
          <mxGeometry width="50" height="50" relative="1" as="geometry">
            <mxPoint x="270" y="215" as="sourcePoint" />
            <mxPoint x="299.999999999995" y="90" as="targetPoint" />
          </mxGeometry>
        </mxCell>
        <mxCell id="3oxbvbiiDGey4lFmMGMX-2" value="Manage User Permission" style="rounded=0;whiteSpace=wrap;html=1;fillColor=#CC6600;" parent="1" vertex="1">
          <mxGeometry x="315" y="430" width="125" height="50" as="geometry" />
        </mxCell>
        <mxCell id="3oxbvbiiDGey4lFmMGMX-3" value="Manage Roles of User" style="rounded=0;whiteSpace=wrap;html=1;fillColor=#CC6600;" parent="1" vertex="1">
          <mxGeometry x="160" y="430" width="125" height="50" as="geometry" />
        </mxCell>
        <mxCell id="3oxbvbiiDGey4lFmMGMX-4" value="Manage Timetable Details" style="rounded=0;whiteSpace=wrap;html=1;fillColor=#CC6600;" parent="1" vertex="1">
          <mxGeometry x="600" y="60" width="140" height="40" as="geometry" />
        </mxCell>
        <mxCell id="3oxbvbiiDGey4lFmMGMX-5" value="Manage Report" style="rounded=0;whiteSpace=wrap;html=1;fillColor=#CC6600;" parent="1" vertex="1">
          <mxGeometry x="600" y="420" width="140" height="40" as="geometry" />
        </mxCell>
        <mxCell id="3oxbvbiiDGey4lFmMGMX-6" value="Manage Teacher Profiles" style="rounded=0;whiteSpace=wrap;html=1;fillColor=#CC6600;" parent="1" vertex="1">
          <mxGeometry x="600" y="360" width="140" height="40" as="geometry" />
        </mxCell>
        <mxCell id="3oxbvbiiDGey4lFmMGMX-7" value="Manage Fees Details" style="rounded=0;whiteSpace=wrap;html=1;fillColor=#CC6600;" parent="1" vertex="1">
          <mxGeometry x="600" y="300" width="140" height="40" as="geometry" />
        </mxCell>
        <mxCell id="3oxbvbiiDGey4lFmMGMX-8" value="Manage Student Details" style="rounded=0;whiteSpace=wrap;html=1;fillColor=#CC6600;" parent="1" vertex="1">
          <mxGeometry x="600" y="240" width="140" height="40" as="geometry" />
        </mxCell>
        <mxCell id="3oxbvbiiDGey4lFmMGMX-9" value="Manage Class Details" style="rounded=0;whiteSpace=wrap;html=1;fillColor=#CC6600;" parent="1" vertex="1">
          <mxGeometry x="600" y="180" width="140" height="40" as="geometry" />
        </mxCell>
        <mxCell id="3oxbvbiiDGey4lFmMGMX-10" value="Manage Attendance Details" style="rounded=0;whiteSpace=wrap;html=1;fillColor=#CC6600;" parent="1" vertex="1">
          <mxGeometry x="600" y="120" width="140" height="40" as="geometry" />
        </mxCell>
        <mxCell id="3oxbvbiiDGey4lFmMGMX-17" value="" style="endArrow=classic;html=1;rounded=0;entryX=0.427;entryY=-0.006;entryDx=0;entryDy=0;entryPerimeter=0;fillColor=#CC6600;" parent="1" target="to_MpL1wSGInp0MJtWkT-34" edge="1">
          <mxGeometry width="50" height="50" relative="1" as="geometry">
            <mxPoint x="354.47" y="150" as="sourcePoint" />
            <mxPoint x="354.47" y="230" as="targetPoint" />
          </mxGeometry>
        </mxCell>
        <mxCell id="3oxbvbiiDGey4lFmMGMX-18" value="" style="endArrow=classic;html=1;rounded=0;entryX=0;entryY=0.5;entryDx=0;entryDy=0;fillColor=#CC6600;" parent="1" target="3oxbvbiiDGey4lFmMGMX-4" edge="1">
          <mxGeometry width="50" height="50" relative="1" as="geometry">
            <mxPoint x="375" y="210" as="sourcePoint" />
            <mxPoint x="425" y="160" as="targetPoint" />
          </mxGeometry>
        </mxCell>
        <mxCell id="3oxbvbiiDGey4lFmMGMX-19" value="" style="endArrow=classic;html=1;rounded=0;entryX=0;entryY=0.5;entryDx=0;entryDy=0;fillColor=#CC6600;" parent="1" target="3oxbvbiiDGey4lFmMGMX-10" edge="1">
          <mxGeometry width="50" height="50" relative="1" as="geometry">
            <mxPoint x="390" y="220" as="sourcePoint" />
            <mxPoint x="440" y="170" as="targetPoint" />
          </mxGeometry>
        </mxCell>
        <mxCell id="3oxbvbiiDGey4lFmMGMX-20" value="" style="endArrow=classic;html=1;rounded=0;entryX=0;entryY=0.5;entryDx=0;entryDy=0;fillColor=#CC6600;" parent="1" target="3oxbvbiiDGey4lFmMGMX-9" edge="1">
          <mxGeometry width="50" height="50" relative="1" as="geometry">
            <mxPoint x="400" y="240" as="sourcePoint" />
            <mxPoint x="450" y="190" as="targetPoint" />
          </mxGeometry>
        </mxCell>
        <mxCell id="3oxbvbiiDGey4lFmMGMX-21" value="" style="endArrow=classic;html=1;rounded=0;entryX=0;entryY=0.5;entryDx=0;entryDy=0;fillColor=#CC6600;" parent="1" target="3oxbvbiiDGey4lFmMGMX-8" edge="1">
          <mxGeometry width="50" height="50" relative="1" as="geometry">
            <mxPoint x="405" y="255" as="sourcePoint" />
            <mxPoint x="455" y="205" as="targetPoint" />
          </mxGeometry>
        </mxCell>
        <mxCell id="3oxbvbiiDGey4lFmMGMX-23" value="" style="endArrow=classic;html=1;rounded=0;entryX=0;entryY=0.5;entryDx=0;entryDy=0;exitX=0.984;exitY=0.718;exitDx=0;exitDy=0;exitPerimeter=0;fillColor=#CC6600;" parent="1" source="to_MpL1wSGInp0MJtWkT-34" target="3oxbvbiiDGey4lFmMGMX-7" edge="1">
          <mxGeometry width="50" height="50" relative="1" as="geometry">
            <mxPoint x="410" y="270" as="sourcePoint" />
            <mxPoint x="455" y="220" as="targetPoint" />
          </mxGeometry>
        </mxCell>
        <mxCell id="3oxbvbiiDGey4lFmMGMX-24" value="" style="endArrow=classic;html=1;rounded=0;entryX=0;entryY=0.5;entryDx=0;entryDy=0;exitX=1;exitY=1;exitDx=0;exitDy=0;fillColor=#CC6600;" parent="1" source="to_MpL1wSGInp0MJtWkT-34" target="3oxbvbiiDGey4lFmMGMX-6" edge="1">
          <mxGeometry width="50" height="50" relative="1" as="geometry">
            <mxPoint x="390" y="285" as="sourcePoint" />
            <mxPoint x="440" y="235" as="targetPoint" />
          </mxGeometry>
        </mxCell>
        <mxCell id="3oxbvbiiDGey4lFmMGMX-25" value="" style="endArrow=classic;html=1;rounded=0;entryX=0;entryY=0.5;entryDx=0;entryDy=0;fillColor=#CC6600;" parent="1" target="3oxbvbiiDGey4lFmMGMX-5" edge="1">
          <mxGeometry width="50" height="50" relative="1" as="geometry">
            <mxPoint x="380" y="290" as="sourcePoint" />
            <mxPoint x="430" y="240" as="targetPoint" />
          </mxGeometry>
        </mxCell>
        <mxCell id="3oxbvbiiDGey4lFmMGMX-26" value="Send Email to user" style="ellipse;whiteSpace=wrap;html=1;aspect=fixed;fillColor=#CC6600;" parent="1" vertex="1">
          <mxGeometry x="30" y="290" width="80" height="80" as="geometry" />
        </mxCell>
        <mxCell id="3oxbvbiiDGey4lFmMGMX-27" value="Manage System Updates" style="rounded=0;whiteSpace=wrap;html=1;fillColor=#CC6600;" parent="1" vertex="1">
          <mxGeometry x="20" y="430" width="125" height="50" as="geometry" />
        </mxCell>
        <mxCell id="3oxbvbiiDGey4lFmMGMX-31" value="Admin" style="rounded=0;whiteSpace=wrap;html=1;strokeColor=#000000;fillColor=#CC6600;" parent="1" vertex="1">
          <mxGeometry x="35" y="55" width="80" height="50" as="geometry" />
        </mxCell>
      </root>
    </mxGraphModel>
  </diagram>
</mxfile>
